<svg xmlns="http://www.w3.org/2000/svg" version="1.1" xmlns:xlink="http://www.w3.org/1999/xlink" xmlns:svgjs="http://svgjs.dev/svgjs" width="1440" height="560" preserveAspectRatio="none" viewBox="0 0 1440 560"><g mask="url(&quot;#SvgjsMask1077&quot;)" fill="none"><path d="M1219.583,678.273C1257.442,677.758,1287.807,651.375,1307.438,618.999C1327.991,585.102,1339.27,544.806,1322.2,509.029C1302.721,468.204,1264.758,432.56,1219.583,434.865C1176.756,437.05,1152.612,480.197,1133.631,518.651C1117.347,551.642,1110.042,589.055,1127.485,621.448C1145.815,655.489,1180.925,678.799,1219.583,678.273" fill="rgba(0, 0, 0, 0.29)" class="triangle-float2"></path><path d="M181.585,281.173C221.365,280.712,263.958,276.533,286.453,243.721C311.686,206.915,315.433,157.425,292.785,118.974C270.426,81.014,225.638,65.302,181.585,65.682C138.281,66.055,96.067,83.807,73.658,120.864C50.486,159.183,47.416,209.053,72.424,246.199C95.294,280.17,140.636,281.647,181.585,281.173" fill="rgba(0, 0, 0, 0.29)" class="triangle-float1"></path><path d="M212.607,556.029C233.103,554.43,242.78,532.919,253.081,515.128C263.416,497.278,278.357,477.609,268.499,459.491C258.433,440.99,233.642,439.68,212.607,440.742C193.817,441.69,175.958,448.907,165.701,464.679C154.388,482.076,150.004,503.97,159.483,522.431C169.74,542.407,190.219,557.776,212.607,556.029" fill="rgba(0, 0, 0, 0.29)" class="triangle-float1"></path><path d="M937.805,227.28C972.663,228.292,1005.192,208.587,1022.117,178.096C1038.577,148.442,1035.202,112.343,1017.746,83.264C1000.822,55.072,970.678,36.866,937.805,37.65C906.171,38.405,879.703,59.337,864.211,86.928C849.073,113.889,847.208,146.05,861.567,173.434C877.052,202.966,904.473,226.312,937.805,227.28" fill="rgba(0, 0, 0, 0.29)" class="triangle-float3"></path><path d="M1252.006,469.269C1313.562,467.673,1366.533,426.682,1393.994,371.567C1418.753,321.876,1407.081,264.127,1377.687,217.029C1350.198,172.983,1303.923,143.528,1252.006,144.064C1200.971,144.59,1158.865,176.988,1130.738,219.576C1098.587,268.257,1071.178,326.799,1096.665,379.277C1124.685,436.972,1187.889,470.932,1252.006,469.269" fill="rgba(0, 0, 0, 0.29)" class="triangle-float1"></path><path d="M290.459,480.726C328.265,480.944,369.915,470.761,386.793,436.931C402.66,405.128,379.708,370.749,360.125,341.09C343.237,315.513,321.079,292.362,290.459,291.032C257.639,289.606,227.398,307.026,209.453,334.543C189.513,365.119,178.334,403.903,196.027,435.832C214.133,468.507,253.104,480.511,290.459,480.726" fill="rgba(0, 0, 0, 0.29)" class="triangle-float1"></path><path d="M881.485,386.46C902.199,385.121,921.305,376.457,932.769,359.153C945.711,339.617,954.523,314.433,942.542,294.293C930.728,274.432,904.589,272.452,881.485,272.942C859.503,273.408,837.184,278.655,824.752,296.79C810.566,317.485,803.855,345.416,817.27,366.619C830.108,386.911,857.523,388.009,881.485,386.46" fill="rgba(0, 0, 0, 0.29)" class="triangle-float2"></path><path d="M1152.88,671.437C1212.939,670.238,1270.811,644.842,1301.808,593.386C1333.789,540.297,1334.539,474.078,1304.391,419.927C1273.401,364.263,1216.508,322.675,1152.88,325.886C1093.33,328.891,1055.766,382.484,1025.728,433.991C995.364,486.056,964.831,546.412,993.284,599.545C1022.806,654.674,1090.356,672.685,1152.88,671.437" fill="rgba(0, 0, 0, 0.29)" class="triangle-float3"></path><path d="M696.821,275.389C735.101,273.216,759.008,237.556,776.408,203.389C791.847,173.072,796.92,138.847,781.903,108.318C764.853,73.654,735.438,42.6,696.821,41.59C656.844,40.545,623.319,68.827,603.668,103.657C584.389,137.827,581.172,178.922,599.879,213.409C619.48,249.543,655.779,277.719,696.821,275.389" fill="rgba(0, 0, 0, 0.29)" class="triangle-float1"></path><path d="M1302.88,73.37C1322.776,71.742,1336.773,56.581,1347.51,39.752C1359.485,20.983,1373.788,-1.247,1362.861,-20.645C1351.838,-40.215,1325.271,-41.255,1302.88,-39.478C1284.004,-37.98,1268.006,-27.958,1257.395,-12.276C1244.96,6.101,1233.104,28.664,1243.512,48.261C1254.314,68.6,1279.928,75.248,1302.88,73.37" fill="rgba(0, 0, 0, 0.29)" class="triangle-float2"></path></g><defs><mask id="SvgjsMask1077"><rect width="1440" height="560" fill="#ffffff"></rect></mask><style>
                @keyframes float1 {
                    0%{transform: translate(0, 0)}
                    50%{transform: translate(-10px, 0)}
                    100%{transform: translate(0, 0)}
                }

                .triangle-float1 {
                    animation: float1 5s infinite;
                }

                @keyframes float2 {
                    0%{transform: translate(0, 0)}
                    50%{transform: translate(-5px, -5px)}
                    100%{transform: translate(0, 0)}
                }

                .triangle-float2 {
                    animation: float2 4s infinite;
                }

                @keyframes float3 {
                    0%{transform: translate(0, 0)}
                    50%{transform: translate(0, -10px)}
                    100%{transform: translate(0, 0)}
                }

                .triangle-float3 {
                    animation: float3 6s infinite;
                }
            </style></defs></svg>