<svg xmlns="http://www.w3.org/2000/svg" version="1.1" xmlns:xlink="http://www.w3.org/1999/xlink" xmlns:svgjs="http://svgjs.dev/svgjs" width="1440" height="560" preserveAspectRatio="none" viewBox="0 0 1440 560"><g mask="url(&quot;#SvgjsMask1192&quot;)" fill="none"><path d="M314.934,468.245C331.701,466.96,343.851,454.152,352.288,439.606C360.762,424.995,366.827,407.578,358.711,392.765C350.351,377.506,332.332,371.201,314.934,371.425C297.964,371.644,282.342,379.655,273.069,393.869C262.764,409.666,256.897,429.77,266.149,446.206C275.53,462.872,295.865,469.706,314.934,468.245" fill="rgba(255, 255, 255, 0.34)" class="triangle-float1"></path><path d="M1378.794,671.162C1424.875,671.423,1468.104,650.02,1493.024,611.257C1520.262,568.889,1530.563,515.777,1507.466,471.017C1482.545,422.723,1433.139,390.042,1378.794,389.887C1324.201,389.731,1273.605,421.625,1248.843,470.279C1226.02,515.123,1239.455,567.725,1266.785,609.974C1291.552,648.26,1333.196,670.903,1378.794,671.162" fill="rgba(255, 255, 255, 0.34)" class="triangle-float1"></path><path d="M542.014,788.915C593.413,784.453,624.144,738.28,651.098,694.289C679.956,647.19,718.7,593.079,691.442,545.036C664.028,496.717,597.562,501.194,542.014,502.02C488.568,502.815,430.398,505.34,400.09,549.369C366.198,598.606,363.853,665.153,394.321,716.579C424.269,767.127,483.48,793.996,542.014,788.915" fill="rgba(255, 255, 255, 0.34)" class="triangle-float3"></path><path d="M1474.935,260.411C1520.548,259.566,1563.353,237.415,1586.348,198.013C1609.528,158.295,1606.913,110.489,1586.474,69.293C1563.124,22.228,1527.474,-26.386,1474.935,-26.547C1422.231,-26.709,1386.487,21.828,1362.203,68.604C1340.175,111.033,1331.914,161.063,1356.137,202.278C1380.08,243.015,1427.691,261.286,1474.935,260.411" fill="rgba(255, 255, 255, 0.34)" class="triangle-float2"></path><path d="M146.239,327.846C166.049,327.21,183.83,317.109,194.432,300.363C205.917,282.223,211.675,259.543,201.426,240.677C190.792,221.101,168.517,211.501,146.239,211.648C124.231,211.793,103.418,222.405,92.297,241.396C81.06,260.586,80.598,284.773,92.37,303.64C103.539,321.54,125.151,328.523,146.239,327.846" fill="rgba(255, 255, 255, 0.34)" class="triangle-float3"></path><path d="M943.624,382.324C960.08,382.305,978.345,379.793,986.505,365.503C994.622,351.288,987.067,334.564,979.041,320.298C970.794,305.639,960.387,290.664,943.624,289.282C924.732,287.724,905.719,296.975,896.406,313.485C887.229,329.754,890.006,350.198,900.572,365.602C909.906,379.21,927.123,382.343,943.624,382.324" fill="rgba(255, 255, 255, 0.34)" class="triangle-float3"></path><path d="M1289.277,354.264C1314.124,354.712,1333.22,334.245,1344.667,312.187C1355.143,291.999,1354.623,268.716,1344.147,248.528C1332.667,226.406,1314.181,206.427,1289.277,205.449C1262.965,204.416,1238.11,220.32,1226.4,243.905C1215.72,265.416,1225.354,289.381,1237.243,310.249C1249.297,331.405,1264.932,353.825,1289.277,354.264" fill="rgba(255, 255, 255, 0.34)" class="triangle-float1"></path><path d="M349.469,462.879C401.692,464.661,446.033,424.781,468.19,377.458C487.453,336.316,471.07,291.164,448.265,251.875C425.583,212.799,394.651,172.991,349.469,172.926C304.213,172.861,271.551,211.697,250.181,251.59C230.21,288.87,226.014,331.529,244.001,369.806C265.374,415.289,299.244,461.165,349.469,462.879" fill="rgba(255, 255, 255, 0.34)" class="triangle-float3"></path><path d="M759.823,362.608C812.112,362.545,868.185,352.176,895.43,307.546C923.576,261.44,912.169,203.668,885.539,156.67C858.466,108.891,814.739,68.4,759.823,68.222C704.658,68.043,659.942,107.888,632.688,155.851C605.808,203.156,595.145,261.527,623.644,307.875C651.109,352.54,707.389,362.672,759.823,362.608" fill="rgba(255, 255, 255, 0.34)" class="triangle-float1"></path><path d="M277.642,157.236C315.256,155.961,350.541,139.544,370.619,107.711C392.191,73.511,398.941,30.658,380.021,-5.078C359.941,-43.005,320.527,-66.301,277.642,-67.905C231.683,-69.623,183.968,-53.158,161.084,-13.264C138.288,26.476,147.207,76.589,173.062,114.41C195.847,147.74,237.291,158.604,277.642,157.236" fill="rgba(255, 255, 255, 0.34)" class="triangle-float1"></path></g><defs><mask id="SvgjsMask1192"><rect width="1440" height="560" fill="#ffffff"></rect></mask><style>
                @keyframes float1 {
                    0%{transform: translate(0, 0)}
                    50%{transform: translate(-10px, 0)}
                    100%{transform: translate(0, 0)}
                }

                .triangle-float1 {
                    animation: float1 5s infinite;
                }

                @keyframes float2 {
                    0%{transform: translate(0, 0)}
                    50%{transform: translate(-5px, -5px)}
                    100%{transform: translate(0, 0)}
                }

                .triangle-float2 {
                    animation: float2 4s infinite;
                }

                @keyframes float3 {
                    0%{transform: translate(0, 0)}
                    50%{transform: translate(0, -10px)}
                    100%{transform: translate(0, 0)}
                }

                .triangle-float3 {
                    animation: float3 6s infinite;
                }
            </style></defs></svg>